<svg width="77" height="31" viewBox="0 0 77 31" fill="none" xmlns="http://www.w3.org/2000/svg">
<path d="M67.8354 0H71.5915L71.6628 20H69.7045C69.0683 20 68.449 20.1637 67.9029 20.4677L67.8354 0Z" fill="black"/>
<path fill-rule="evenodd" clip-rule="evenodd" d="M66.0696 22.99V14.2741H62.6241L62.3682 16.7373C61.8073 15.7906 61.1283 15.3523 60.0599 14.6686C58.9915 13.9585 57.6827 13.6035 56.1335 13.6035C54.5843 13.6035 53.1553 13.9585 51.8466 14.6686C50.5645 15.3786 49.5361 16.4043 48.7615 17.7455C47.987 19.0604 47.5997 20.6252 47.5997 22.4398C47.5997 24.2807 47.9602 25.8455 48.6814 27.1341C49.4293 28.3964 50.4309 29.3563 51.6863 30.0138C52.9684 30.6713 54.384 31 55.9332 31C56.8947 31 57.7628 30.8685 58.5374 30.6055C58.695 30.5467 58.8518 30.4909 59.0065 30.4359C59.6121 30.2205 60.1865 30.0163 60.6545 29.6812C61.2688 29.2604 61.7158 28.8429 62.063 28.4484C62.2 28.2943 62.2853 28.1643 62.3436 28.0486V30.6055H66V23.7052C66 23.4634 66.0236 23.2239 66.0696 22.99ZM59.4589 27.4497C58.711 27.7916 57.8697 27.9625 56.9348 27.9625C55.9465 27.9625 55.025 27.7127 54.1703 27.213C53.3156 26.7133 52.6345 26.0296 52.127 25.1617C51.6195 24.2939 51.3658 23.334 51.3658 22.282C51.3658 21.1512 51.6062 20.165 52.0869 19.3234C52.5944 18.4819 53.2622 17.8244 54.0902 17.351C54.9182 16.8777 55.8264 16.641 56.8146 16.641C57.7228 16.641 58.5508 16.8119 59.2987 17.1538C60.0465 17.4694 60.6876 17.9296 61.2218 18.5345C61.756 19.113 62.1299 19.7968 62.3436 20.5858V23.781C62.1566 24.6489 61.8094 25.3984 61.3019 26.0296C60.8211 26.6344 60.2068 27.1078 59.4589 27.4497Z" fill="black"/>
<path d="M77 20V0.0475232H73.2439V20H77Z" fill="black"/>
<path d="M45.479 30.4872C46.5207 30.1453 47.4155 29.6851 48.1634 29.1065L46.2403 26.7791C45.7595 27.1473 45.2119 27.4365 44.5976 27.6469C44.01 27.8573 43.3556 27.9625 42.6344 27.9625C41.5393 27.9625 40.5644 27.7258 39.7097 27.2525C38.8549 26.7528 38.1872 26.0822 37.7064 25.2406C37.2256 24.3728 36.9852 23.4392 36.9852 22.4398C36.9852 21.3879 37.2123 20.4411 37.6663 19.5996C38.1471 18.758 38.7882 18.1005 39.5895 17.6272C40.4175 17.1275 41.3123 16.8777 42.2738 16.8777C43.1553 16.8777 43.9432 17.0223 44.6377 17.3116C45.3321 17.6009 45.9197 17.9296 46.4005 18.2978L48.2435 15.9309C47.4956 15.2997 46.5875 14.8001 45.5191 14.4319C44.4774 14.0637 43.2888 13.8796 41.9533 13.8796C40.4308 13.8796 39.0019 14.2346 37.6663 14.9447C36.3576 15.6285 35.2892 16.6147 34.4611 17.9033C33.6598 19.1919 33.2592 20.7041 33.2592 22.4398C33.2592 24.1755 33.6331 25.6877 34.381 26.9763C35.1556 28.2386 36.224 29.2248 37.5862 29.9349C38.9484 30.645 40.5377 31 42.354 31C43.3956 31 44.4373 30.8291 45.479 30.4872Z" fill="black"/>
<path fill-rule="evenodd" clip-rule="evenodd" d="M11.7391 2.67642C10.5104 2.28194 9.16154 2.0847 7.69249 2.0847H0V30.6055H3.88631V20.1124H8.17327C8.50219 20.1124 8.82147 20.1038 9.13111 20.0865L15.9459 30.6055H20.4332L13.1801 19.1189C14.235 18.5993 15.1035 17.9575 15.7856 17.1932C16.5602 16.2991 17.1078 15.3129 17.4283 14.2346C17.7755 13.1564 17.9491 12.0519 17.9491 10.921C17.9491 9.4746 17.682 8.21227 17.1478 7.13403C16.6403 6.02949 15.9192 5.10904 14.9843 4.37267C14.0762 3.61002 12.9944 3.0446 11.7391 2.67642ZM10.9378 15.9309C10.1899 16.2728 9.24167 16.4437 8.09314 16.4437H3.88631V5.75335H8.37359C9.38857 5.75335 10.2433 5.92429 10.9378 6.26617C11.6589 6.60806 12.2332 7.04198 12.6606 7.56795C13.1146 8.09393 13.4351 8.6725 13.6221 9.30366C13.8358 9.90853 13.9426 10.5002 13.9426 11.0788C13.9426 11.6311 13.8491 12.2228 13.6622 12.854C13.4752 13.4851 13.168 14.0769 12.7407 14.6291C12.3133 15.1551 11.7123 15.589 10.9378 15.9309Z" fill="black"/>
<path fill-rule="evenodd" clip-rule="evenodd" d="M31.088 30.263C32.1297 29.9211 33.0245 29.4609 33.7723 28.8823L31.8492 26.5549C31.3684 26.9231 30.8209 27.2124 30.2065 27.4228C29.6189 27.6331 28.9645 27.7383 28.2434 27.7383C27.1482 27.7383 26.1733 27.5016 25.3186 27.0283C25.2064 26.9627 25.0974 26.8941 24.9916 26.8226L32.7068 17.2187L33.8996 15.7562C33.1517 15.1251 32.1964 14.5759 31.128 14.2077C30.0864 13.8395 28.8978 13.6554 27.5623 13.6554C26.0398 13.6554 24.6108 14.0105 23.2753 14.7205C21.9665 15.4043 20.8981 16.3905 20.0701 17.6791C19.2688 18.9678 18.8681 20.4799 18.8681 22.2156C18.8681 23.9513 19.2421 25.4635 19.99 26.7521C20.7646 28.0145 21.833 29.0007 23.1952 29.7107C24.5574 30.4208 26.1466 30.7758 27.9629 30.7758C29.0046 30.7758 30.0463 30.6049 31.088 30.263ZM27.8828 16.6535C28.2813 16.6535 28.6606 16.683 29.0209 16.7422L22.9538 24.2344C22.7141 23.5942 22.5942 22.9213 22.5942 22.2156C22.5942 21.1637 22.8212 20.2169 23.2753 19.3754C23.7561 18.5338 24.3971 17.8764 25.1984 17.403C26.0264 16.9033 26.9212 16.6535 27.8828 16.6535Z" fill="black"/>
<path d="M76.916 20.9358C76.6612 21.6624 76.2464 22.3224 75.7021 22.867L68.8643 29.7042C68.3202 30.2475 67.6611 30.6618 66.9355 30.9163V24.0175C66.9355 23.2001 67.2602 22.4163 67.838 21.8384C68.4158 21.2605 69.1994 20.9358 70.0166 20.9358H76.916Z" fill="url(#paint0_linear_54_171)"/>
<defs>
<linearGradient id="paint0_linear_54_171" x1="76.916" y1="25.926" x2="66.9355" y2="25.926" gradientUnits="userSpaceOnUse">
<stop stop-color="#DE61E8"/>
<stop offset="0.485" stop-color="#9467DB"/>
<stop offset="1" stop-color="#6177E8"/>
</linearGradient>
</defs>
</svg>
