<svg width="30" height="34" viewBox="0 0 30 34" fill="none" xmlns="http://www.w3.org/2000/svg">
<path d="M24.9957 32.6359C23.0573 34.4301 20.9409 34.1468 18.9036 33.2969C16.7476 32.4281 14.7696 32.3904 12.495 33.2969C9.6467 34.4679 8.14345 34.1279 6.4424 32.6359C-3.21009 23.136 -1.78595 8.66891 9.17199 8.14008C11.8423 8.27229 13.7015 9.53768 15.2641 9.651C17.5981 9.19773 19.8332 7.89456 22.3255 8.06454C25.3122 8.29118 27.5671 9.42437 29.0506 11.4641C22.8793 14.9959 24.343 22.7582 30 24.9302C28.8726 27.7632 27.4089 30.5773 24.976 32.6548L24.9957 32.6359ZM15.0663 8.02676C14.7696 3.81507 18.3498 0.339957 22.4639 0C23.0376 4.87272 17.8355 8.49893 15.0663 8.02676Z" fill="white"/>
</svg>
